<?xml version="1.0" encoding="UTF-8" standalone="no"?>
<svg
   xmlns:dc="http://purl.org/dc/elements/1.1/"
   xmlns:cc="http://creativecommons.org/ns#"
   xmlns:rdf="http://www.w3.org/1999/02/22-rdf-syntax-ns#"
   xmlns:svg="http://www.w3.org/2000/svg"
   xmlns="http://www.w3.org/2000/svg"
   viewBox="0 0 1100 508"
   height="508"
   width="1100"
   xml:space="preserve"
   id="svg2"
   version="1.1"><metadata
     id="metadata8"><rdf:RDF><cc:Work
         rdf:about=""><dc:format>image/svg+xml</dc:format><dc:type
           rdf:resource="http://purl.org/dc/dcmitype/StillImage" /></cc:Work></rdf:RDF></metadata><defs
     id="defs6"><clipPath
       id="clipPath24"
       clipPathUnits="userSpaceOnUse"><path
         id="path22"
         d="M 10,360 H 125 V 240 H 10 Z" /></clipPath><clipPath
       id="clipPath30"
       clipPathUnits="userSpaceOnUse"><path
         id="path28"
         d="M 42.992,359.723 H 91.68 c 18.121,0 32.711,-14.586 32.711,-32.707 v -53.93 c 0,-18.121 -14.59,-32.711 -32.711,-32.711 H 42.992 c -18.121,0 -32.711,14.59 -32.711,32.711 v 53.93 c 0,18.121 14.59,32.707 32.711,32.707 z" /></clipPath><clipPath
       id="clipPath40"
       clipPathUnits="userSpaceOnUse"><path
         id="path38"
         d="M 9,239 H 126 V 361 H 9 Z" /></clipPath></defs><g
     transform="matrix(1.3333333,0,0,-1.3333333,0,508)"
     id="g10"><g
       id="g12"><text
         id="text16"
         style="font-variant:normal;font-weight:normal;font-size:279.74111938px;font-family:'Gill Sans';-inkscape-font-specification:GillSans;writing-mode:lr-tb;fill:#000000;fill-opacity:1;fill-rule:nonzero;stroke:none"
         transform="matrix(0.99285372,0,0,-1,39.324382,67.932026)"><tspan
           id="tspan14"
           y="0"
           x="0 113.57489 231.06615">key</tspan></text>
</g><g
       id="g18"><g
         clip-path="url(#clipPath24)"
         id="g20"><g
           clip-path="url(#clipPath30)"
           id="g26"><g
             id="g32"><g
               id="g34"><g
                 clip-path="url(#clipPath40)"
                 id="g36"><g
                   id="g42"><g
                     transform="matrix(1,0,0,-1,0,381)"
                     id="g44"><path
                       id="path46"
                       style="fill:#000000;fill-opacity:1;fill-rule:nonzero;stroke:#000000;stroke-width:1.438483;stroke-linecap:butt;stroke-linejoin:miter;stroke-miterlimit:4;stroke-dasharray:none;stroke-opacity:1"
                       d="M 42.992,21.277 H 91.68 c 18.121,0 32.711,14.586 32.711,32.707 v 53.93 c 0,18.121 -14.59,32.711 -32.711,32.711 H 42.992 c -18.121,0 -32.711,-14.59 -32.711,-32.711 v -53.93 c 0,-18.121 14.59,-32.707 32.711,-32.707 z" /></g></g></g></g></g></g></g></g><g
       id="g48"><g
         transform="matrix(1,0,0,-1,0,381)"
         id="g50"><path
           id="path52"
           style="fill:#ffffff;fill-opacity:1;fill-rule:nonzero;stroke:#000000;stroke-width:1.83855903;stroke-linecap:butt;stroke-linejoin:miter;stroke-miterlimit:4;stroke-dasharray:none;stroke-opacity:1"
           d="m 84.742,56.102 c 0,9.515 -7.551,17.226 -16.867,17.226 -9.316,0 -16.871,-7.711 -16.871,-17.226 0,-9.516 7.555,-17.231 16.871,-17.231 9.316,0 16.867,7.715 16.867,17.231 z" /></g><text
         id="text56"
         style="font-variant:normal;font-weight:normal;font-size:261.67456055px;font-family:'Gill Sans';-inkscape-font-specification:GillSans;writing-mode:lr-tb;fill:#000000;fill-opacity:1;fill-rule:nonzero;stroke:none"
         transform="matrix(1,0,0,-0.98396719,350.04295,63.127788)"><tspan
           id="tspan54"
           y="0"
           x="0 131.36063 271.87985">ATM</tspan></text>
<text
         id="text62"
         style="font-variant:normal;font-weight:normal;font-size:64px;font-family:'Gill Sans';-inkscape-font-specification:GillSans;writing-mode:lr-tb;fill:#000000;fill-opacity:1;fill-rule:nonzero;stroke:none"
         transform="matrix(1,0,0,-1,373.29662,315.30508)"><tspan
           id="tspan58"
           y="0"
           x="0 36.608002 64.704002 91.136002 134.40001 168.192 191.04001 222.08 231.936 273.08801 296.19202 319.23203 331.71201 354.81601 374.65601 403.776">Keyword Assisted</tspan><tspan
           id="tspan60"
           y="58.474564"
           x="108.88979 136.40979 170.2018 200.7298 213.20979 239.6418 255.8338 304.2818 338.13782 369.1778 398.29779 410.7778">Topic Models</tspan></text>
</g></g></svg>