<?xml version="1.0" encoding="UTF-8" standalone="no"?>
<!DOCTYPE svg PUBLIC "-//W3C//DTD SVG 1.1//EN"
"http://www.w3.org/Graphics/SVG/1.1/DTD/svg11.dtd">


<!-- Page 1 -->
<svg x="0" y="0" width="1260" height="582" viewBox="0 0 1260 582" version="1.1" xmlns="http://www.w3.org/2000/svg" xmlns:xlink="http://www.w3.org/1999/xlink"
style="display: block;margin-left: auto;margin-right: auto;">
<defs>
<clipPath id="c_1"><path d="M0,0H1260V582H0Z"/></clipPath>
<clipPath id="c0"><path d="M65.7,214.8c-27.7,0,-50,-22.2,-50,-49.9V82.5c0,-27.7,22.3,-50,50,-50h74.4c27.7,0,49.9,22.3,49.9,50v82.4c0,27.7,-22.2,49.9,-49.9,49.9Z"/></clipPath>

<style type="text/css"><![CDATA[
text { white-space: pre; }
path, image { pointer-events: none; }
text::-moz-selection {
	color: transparent;
	background: rgba(0, 106, 173, 0.4);
}
text::selection {
	color: transparent;
	background: rgba(0, 106, 173, 0.4);
}

.s1{
font-size: 427.38px;
font-family: GillSans_5;
fill: TRANSPARENT;
}
.s2{
font-size: 393.37px;
font-family: GillSans_5;
fill: TRANSPARENT;
}

.g0{
stroke: #000000;
stroke-width: 2.197;
stroke-linecap: butt;
stroke-linejoin: miter;
stroke-miterlimit: 4;
}
.g1{
fill: #FFFFFF;
stroke: #000000;
stroke-width: 2.808;
stroke-linecap: butt;
stroke-linejoin: miter;
stroke-miterlimit: 4;
}

]]></style>

</defs>
<g clip-path="url(#c_1)">
<path d="M0,0
L0,582
L1260,582
L1260,0 Z " 
fill="#FFFFFF" stroke="none"/>
<g fill="#000000" >
<use xlink:href="#f0_2" transform="matrix(277.7,0,0,279.7,60.1,478.3)" />
<use xlink:href="#f0_3" transform="matrix(277.7,0,0,279.7,232.4,478.3)" />
<use xlink:href="#f0_4" transform="matrix(277.7,0,0,279.7,410.6,478.3)" />
</g>
<text transform="matrix(0.99,0,0,1,60,478)" dx="0,-31.2,-25.2" class="s1">key</text>
<g clip-path="url(#c0)">
<path d="M65.7,32.5h74.4c27.7,0,49.9,22.3,49.9,50v82.4c0,27.7,-22.2,49.9,-49.9,49.9H65.7c-27.7,0,-50,-22.2,-50,-49.9V82.5c0,-27.7,22.3,-50,50,-50Z" class="g0"/>
</g>
<path d="M129.5,85.7c0,14.5,-11.6,26.3,-25.8,26.3C89.5,112,77.9,100.2,77.9,85.7c0,-14.5,11.6,-26.3,25.8,-26.3c14.2,0,25.8,11.8,25.8,26.3Z" class="g1"/>
<g fill="#000000" >
<use xlink:href="#f0_5" transform="matrix(261.7,0,0,257.5,534.8,485.6)" />
<use xlink:href="#f0_6" transform="matrix(261.7,0,0,257.5,735.5,485.6)" />
<use xlink:href="#f0_7" transform="matrix(261.7,0,0,257.5,950.2,485.6)" />
</g>
<text transform="matrix(1.02,0,0,1,534,485)" dx="0,-64.5,-26.4" class="s2">ATM</text>

</g>
<defs>
<path d="M582,0L238,350L541,686H704L411,350L764,0ZM96,0V1042H232V0Z"
id="f0_2"
transform="scale(0.001,-0.001)"/>

<path d="M548,413c0,0,-6,81,-49,125c0,0,-43,44,-117,44c0,0,-73,0,-120,-44c0,0,-46,-44,-61,-125ZM401,-10c0,0,-114,0,-184,46c0,0,-70,47,-112,127c0,0,-42,79,-42,184c0,0,0,157,88,255c0,0,89,98,231,98c0,0,137,0,218,-95c0,0,82,-96,82,-256V331H198c0,0,6,-98,67,-156c0,0,60,-59,157,-59c0,0,134,0,247,83V67C669,67,607,25,545,7c0,0,-62,-17,-144,-17Z"
id="f0_3"
transform="scale(0.001,-0.001)"/>

<path d="M32,-349L265,148L0,686H154L340,300L517,686H670L184,-349Z"
id="f0_4"
transform="scale(0.001,-0.001)"/>

<path d="M667,442L498,819L342,442ZM0,0L447,1048H553L1019,0H866L727,309H283L153,0Z"
id="f0_5"
transform="scale(0.001,-0.001)"/>

<path d="M383,0V910H26v133H897V910H533V0Z"
id="f0_6"
transform="scale(0.001,-0.001)"/>

<path d="M111,0V1042H252L599,614l344,428h139V0H933V811L612,408H585L261,811V0Z"
id="f0_7"
transform="scale(0.001,-0.001)"/>


</defs>

<!-- Any embedded fonts defined here -->
<style type="text/css" ><![CDATA[

@font-face {
	font-family: GillSans_5;
	src: url("fonts/GillSans_5.woff") format("woff");
}

]]></style>

</svg>
